<?xml version="1.0" encoding="UTF-8"?>
<svg width="159px" height="33px" viewBox="0 0 159 33" version="1.1" xmlns="http://www.w3.org/2000/svg" xmlns:xlink="http://www.w3.org/1999/xlink">
    <!-- Generator: Sketch 49.3 (51167) - http://www.bohemiancoding.com/sketch -->
    <title>лого</title>
    <desc>Created with Sketch.</desc>
    <defs>
        <polygon id="path-1" points="19.8709091 19.9978889 19.8709091 0.0938148148 0.336145455 0.0938148148 0.336145455 19.9978889"></polygon>
    </defs>
    <g id="symbols" stroke="none" stroke-width="1" fill="none" fill-rule="evenodd">
        <g id="Подвал" transform="translate(-153.000000, -39.000000)">
            <g id="Group-8">
                <g id="лого" transform="translate(153.000000, 39.000000)">
                    <path d="M110,25.5 C110,24.6713374 110.67166,24 111.499792,24 C112.32834,24 113,24.6713374 113,25.5 C113,26.3286626 112.32834,27 111.499792,27 C110.67166,27 110,26.3286626 110,25.5" id="Fill-1" fill="#434343"></path>
                    <path d="M102.000183,14 C98.1405396,14 95,10.8598268 95,7.00018316 C95,3.14017322 98.1405396,0 102.000183,0 C105.859827,0 109,3.14017322 109,7.00018316 C109,10.8598268 105.859827,14 102.000183,14 M102.000183,1.56385902 C99.002512,1.56385902 96.5642253,4.00251197 96.5642253,7.00018316 C96.5642253,9.99748803 99.002512,12.436141 102.000183,12.436141 C104.997488,12.436141 107.436141,9.99748803 107.436141,7.00018316 C107.436141,4.00251197 104.997488,1.56385902 102.000183,1.56385902" id="Fill-3" fill="#434343"></path>
                    <path d="M106,7 C106,9.20911528 104.209115,11 102,11 C99.7908847,11 98,9.20911528 98,7 C98,4.79088472 99.7908847,3 102,3 C104.209115,3 106,4.79088472 106,7" id="Fill-5" fill="#434343"></path>
                    <path d="M101.832427,4.11171546 C102.212438,4.36505636 101.924389,4.96840344 101.188208,5.45886623 C100.452514,5.94932902 99.5479796,6.14168645 99.1674817,5.88834555 C98.7874703,5.63468027 99.0760065,5.03165757 99.8117007,4.54119478 C100.547395,4.05040761 101.452415,3.85837456 101.832427,4.11171546" id="Fill-7" fill="#434343"></path>
                    <path d="M109.548429,26.7448193 C106.320915,29.3306024 98.976048,34.3886747 94.11015,31.3637349 C92.8697666,30.5924096 92.0967741,29.4553012 91.8134633,27.9838554 C90.6712321,22.0514458 97.5983237,12.5045783 97.6684323,12.4087952 L97.1161921,12 C96.8224549,12.4008434 89.9413833,21.8855422 91.140061,28.1143373 C91.4614821,29.7827711 92.3390983,31.073494 93.74954,31.95 C94.9442628,32.6927711 96.2561929,33 97.6112668,33 C102.271872,33 107.428272,29.3624096 110,27.2793976 C109.822032,27.1272289 109.66995,26.946506 109.548429,26.7448193" id="Fill-9" fill="#434343"></path>
                    <path d="M87.3174531,26 L74.2620891,26 C71.3604596,26 69,23.6674857 69,20.8002085 C69,17.9332849 71.3604596,15.600417 74.2620891,15.600417 L82.7379109,15.600417 C84.6359424,15.600417 86.1796364,14.0749986 86.1796364,12.1997915 C86.1796364,10.3242307 84.6359424,8.79881238 82.7379109,8.79881238 L69.9101818,8.79881238 L69.9101818,7 L82.7379109,7 C85.6395404,7 88,9.33251429 88,12.1997915 C88,15.0667151 85.6395404,17.3992294 82.7379109,17.3992294 L74.2620891,17.3992294 C72.3640576,17.3992294 70.8203636,18.9250014 70.8203636,20.8002085 C70.8203636,22.6754156 72.3640576,24.2011876 74.2620891,24.2011876 L87.3174531,24.2011876 L87.3174531,26 Z" id="Fill-11" fill="#434343"></path>
                    <path d="M27.4581656,8.79881238 L41,8.79881238 L41,7 L27.4581656,7 C24.4487866,7 22,9.33251429 22,12.1997915 C22,13.9855178 22.9500371,15.5632807 24.3934699,16.5001768 C22.9500371,17.4367193 22,19.0148359 22,20.8002085 C22,23.6674857 24.4487866,26 27.4581656,26 L41,26 L41,24.2011876 L27.4581656,24.2011876 C25.4897808,24.2011876 23.8881941,22.6754156 23.8881941,20.8002085 C23.8881941,18.9250014 25.4897808,17.399583 27.4581656,17.399583 L41,17.399583 L41,15.6007706 L27.4581656,15.6007706 C25.4897808,15.6007706 23.8881941,14.0749986 23.8881941,12.1997915 C23.8881941,10.3245844 25.4897808,8.79881238 27.4581656,8.79881238" id="Fill-13" fill="#434343"></path>
                    <path d="M19,26 L9.97186291,26 C4.47323069,26 0,21.7381657 0,16.4998232 C0,11.2614806 4.47323069,7 9.97186291,7 L19,7 L19,8.79881238 L9.97186291,8.79881238 C5.51459612,8.79881238 1.88819415,12.2535508 1.88819415,16.4998232 C1.88819415,20.7464492 5.51459612,24.2011876 9.97186291,24.2011876 L19,24.2011876 L19,26 Z" id="Fill-15" fill="#434343"></path>
                    <path d="M60.5265352,15.6006106 L60.1348821,15.6006106 C60.9677035,14.6881352 61.4732786,13.4994416 61.4732786,12.1996947 C61.4732786,9.33282454 59.0180004,7 55.9998139,7 L46,7 L46,15.6006106 L46,17.3993894 L46,26 L60.5265352,26 C63.5447218,26 66,23.6671755 66,20.8003053 C66,17.9330814 63.5447218,15.6006106 60.5265352,15.6006106 Z M47.8934867,8.7987789 L55.9998139,8.7987789 C57.9737161,8.7987789 59.5797919,10.3245225 59.5797919,12.1996947 C59.5797919,14.0748669 57.9737161,15.6006106 55.9998139,15.6006106 L47.8934867,15.6006106 L47.8934867,8.7987789 Z M60.5265352,24.2012211 L47.8934867,24.2012211 L47.8934867,17.3993894 L55.9998139,17.3993894 L60.5265352,17.3993894 C62.5004374,17.3993894 64.1065133,18.9251331 64.1065133,20.8003053 C64.1065133,22.6754775 62.5004374,24.2012211 60.5265352,24.2012211 Z" id="Fill-17" fill="#434343"></path>
                    <path d="M118.893487,26 L117,26 L117,7 L131.526535,7 C134.544722,7 137,9.33512234 137,12.2052515 C137,15.0757347 134.544722,17.410857 131.526535,17.410857 L118.893487,17.410857 L118.893487,26 Z M118.893487,15.6100334 L131.526535,15.6100334 C133.50081,15.6100334 135.106513,14.0829094 135.106513,12.2052515 C135.106513,10.3279477 133.50081,8.80082369 131.526535,8.80082369 L118.893487,8.80082369 L118.893487,15.6100334 Z" id="Fill-19" fill="#434343"></path>
                    <path d="M110.106513,7 L110.106513,10.1747981 C110.106513,14.4197648 106.469947,17.8731532 101.999814,17.8731532 C97.5300534,17.8731532 93.8934867,14.4197648 93.8934867,10.1747981 L93.8934867,7 L92,7 L92,10.1747981 C92,15.0879573 95.9492936,19.1413048 100.991642,19.6228276 L100.991642,26 L103.008358,26 L103.008358,19.6228276 C108.050706,19.1413048 112,15.0879573 112,10.1747981 L112,7 L110.106513,7 Z" id="Fill-21" fill="#434343"></path>
                    <g id="Group-25" transform="translate(139.000000, 7.000000)">
                        <mask id="mask-2" fill="white">
                            <use xlink:href="#path-1"></use>
                        </mask>
                        <g id="Clip-24"></g>
                        <path d="M18.0216,0.0938148148 L18.0216,3.41974074 C18.0216,7.86677778 14.4696,11.4845556 10.1034182,11.4845556 C5.7376,11.4845556 2.1856,7.86677778 2.1856,3.41974074 L2.1856,0.0938148148 L0.336145455,0.0938148148 L0.336145455,3.41974074 C0.336145455,8.56677778 4.1936,12.8130741 9.11869091,13.3175185 L9.11869091,19.9978889 L11.0888727,19.9978889 L11.0888727,13.3175185 C16.0136,12.8130741 19.8710545,8.56677778 19.8710545,3.41974074 L19.8710545,0.0938148148 L18.0216,0.0938148148 Z" id="Fill-23" fill="#434343" mask="url(#mask-2)"></path>
                    </g>
                </g>
            </g>
        </g>
    </g>
</svg>